<svg xmlns="http://www.w3.org/2000/svg" viewBox="0 0 64 64"><title>2</title><g id="Layer_69" data-name="Layer 69"><path d="M55,51.25A29.93,29.93,0,0,0,51.63,9.34,2,2,0,0,0,51.26,9,29.93,29.93,0,0,0,9.34,12.37a2,2,0,0,0-.32.37,29.93,29.93,0,0,0,3.4,42,2,2,0,0,0,.23.2,29.93,29.93,0,0,0,42-3.27A2,2,0,0,0,55,51.25Zm-1.56-4.55L41,28l17,3.46c0,.19,0,.38,0,.57A25.85,25.85,0,0,1,53.42,46.71ZM37.16,35.49l-4,2.63-4.68-1-2.63-4,1-4.68,4-2.63,4.68,1,2.63,4Zm20.4-8.23-22-4.5L50,13.22A26,26,0,0,1,57.56,27.26ZM46.71,10.58,28,23,31.43,6H32A25.85,25.85,0,0,1,46.71,10.58ZM27.26,6.44l-4.5,22L13.22,14A26,26,0,0,1,27.26,6.44ZM10.58,17.29,23,36,6,32.57c0-.19,0-.38,0-.57A25.85,25.85,0,0,1,10.58,17.29ZM6.44,36.74l22,4.5L14,50.78A26,26,0,0,1,6.44,36.74ZM17.29,53.42,36,41,32.57,58H32A25.85,25.85,0,0,1,17.29,53.42Zm19.45,4.14,4.5-22L50.78,50A26,26,0,0,1,36.74,57.56Z" id="id_101" style="fill: rgb(214, 214, 214);"></path></g></svg>